{"title":"Herbie 05-Fully Loaded (480p-10bit)-CRF16","uid":8732395,"size":1664424919,"categoryP":"video","categoryS":"movies","magnet":"?xt=urn:btih:c1bebba424691f255b01b4e1148c8d4d9ca34731&amp;dn=Herbie+05-Fully+Loaded+%28480p-10bit%29-CRF16&amp;tr=udp%3A%2F%2Ftracker.openbittorrent.com%3A80&amp;tr=udp%3A%2F%2Fopen.demonii.com%3A1337&amp;tr=udp%3A%2F%2Ftracker.coppersurfer.tk%3A6969&amp;tr=udp%3A%2F%2Fexodus.desync.com%3A6969","seeders":1,"leechers":0,"uploader":"AV_dude","files":1,"time":1374628850,"description":"Will play in any recent build of Media Player Classic Home Cinema. \n\nGeneral \nUnique ID : 234110303839906845316989121140269612409 (0xB020012356E59242929DD01815297D79) \nComplete name : H:OUTHerbie 05-Fully Loaded (480p-10bit).mkv \nFormat : Matroska \nFormat version : Version 4 / Version 2 \nFile size : 1.55 GiB \nDuration : 1h 41mn \nOverall bit rate mode : Variable \nOverall bit rate : 2 196 Kbps \nEncoded date : UTC 2013-07-23 22:42:48 \nWriting application : mkvmerge v6.3.0 ('You can't stop me!') built on Jun 28 2013 20:09:41 \nWriting library : libebml v1.3.0 + libmatroska v1.4.0 \nAttachment : Yes \n\nVideo \nID : 1 \nFormat : AVC \nFormat/Info : Advanced Video Codec \nFormat profile : High &lt;a class=&quot;__cf_email__&quot; href=&quot;/cdn-cgi/l/email-protection&quot; data-cfemail=&quot;90a1a0d0dca3bea0&quot;&gt;[email&amp;#160;protected]&lt;/a&gt;&lt;script cf-hash='f9e31' type=&quot;text/javascript&quot;&gt;\n/* &lt;![CDATA[ */!function(){try{var t=&quot;currentScript&quot;in document?document.currentScript:function(){for(var t=document.getElementsByTagName(&quot;script&quot;),e=t.length;e--;)if(t[e].getAttribute(&quot;cf-hash&quot;))return t[e]}();if(t&amp;&amp;t.previousSibling){var e,r,n,i,c=t.previousSibling,a=c.getAttribute(&quot;data-cfemail&quot;);if(a){for(e=&quot;&quot;,r=parseInt(a.substr(0,2),16),n=2;a.length-n;n+=2)i=parseInt(a.substr(n,2),16)^r,e+=String.fromCharCode(i);e=document.createTextNode(e),c.parentNode.replaceChild(e,c)}}}catch(u){}}();/* ]]&gt; */&lt;/script&gt; \nFormat settings, CABAC : Yes \nFormat settings, ReFrames : 4 frames \nCodec ID : V_MPEG4/ISO/AVC \nDuration : 1h 41mn \nBit rate : 1 960 Kbps \nWidth : 720 pixels \nHeight : 448 pixels \nDisplay aspect ratio : 1.935 \nOriginal display aspect ratio : 1.936 \nFrame rate mode : Constant \nFrame rate : 23.976 fps \nOriginal frame rate : 24.000 fps \nColor space : YUV \nChroma subsampling : 4:2:0 \nBit depth : 10 bits \nScan type : Progressive \nBits/(Pixel*Frame) : 0.253 \nStream size : 1.38 GiB (89%) \nWriting library : x264 core 136 r2348+704+51 d1baef6 tMod [10-bit@all X86_64] \nEncoding settings : cabac=1 / ref=4 / deblock=1:0:0 / analyse=0x3:0x133 / me=hex / subme=7 / psy=1 / fade_compensate=0.00 / psy_rd=1.00:0.00 / mixed_ref=1 / me_range=16 / chroma_me=1 / trellis=2 / 8x8dct=1 / cqm=0 / deadzone=21,11 / fast_pskip=1 / chroma_qp_offset=-2 / threads=12 / lookahead_threads=3 / sliced_threads=0 / nr=0 / decimate=1 / interlaced=0 / bluray_compat=0 / constrained_intra=0 / fgo=0 / bframes=4 / b_pyramid=2 / b_adapt=2 / b_bias=0 / direct=3 / weightb=1 / open_gop=0 / weightp=2 / keyint=240 / keyint_min=24 / scenecut=40 / intra_refresh=0 / rc_lookahead=120 / rc=crf / mbtree=1 / crf=16.0000 / qcomp=0.60 / qpmin=0:0:0 / qpmax=81:81:81 / qpstep=4 / ip_ratio=1.40 / aq=1:1.00 / aq-sensitivity=10.00 / aq-factor=1.00:1.00:1.00 / aq2=0 / aq3=0 \nLanguage : English \nDefault : Yes \nForced : No \n\nAudio \nID : 2 \nFormat : Vorbis \nFormat settings, Floor : 1 \nCodec ID : A_VORBIS \nDuration : 1h 41mn \nBit rate mode : Variable \nBit rate : 192 Kbps \nChannel(s) : 2 channels \nSampling rate : 48.0 KHz \nCompression mode : Lossy \nStream size : 139 MiB (9%) \nWriting library : libVorbis (Omnipresent) (20120203 (Omnipresent)) \nDefault : Yes \nForced : No \n\nText \nID : 3 \nFormat : VobSub \nMuxing mode : zlib \nCodec ID : S_VOBSUB \nCodec ID/Info : The same subtitle format used on DVDs \nLanguage : English \nDefault : Yes \nForced : No \n\nMenu \n00:00:00.000 : en:Chapter 01 \n00:08:52.031 : en:Chapter 02 \n00:15:17.950 : en:Chapter 03 \n00:21:31.123 : en:Chapter 04 \n00:30:21.152 : en:Chapter 05 \n00:45:09.707 : en:Chapter 06 \n00:54:52.622 : en:Chapter 07 \n01:02:23.406 : en:Chapter 08 \n01:09:49.518 : en:Chapter 09 \n01:21:20.208 : en:Chapter 10 \n01:28:35.810 : en:Chapter 11 \n01:34:44.712 : en:Chapter 12 \n\n","torrent":{"xt":"urn:btih:c1bebba424691f255b01b4e1148c8d4d9ca34731","amp;dn":"Herbie+05-Fully+Loaded+%28480p-10bit%29-CRF16","amp;tr":["udp%3A%2F%2Ftracker.openbittorrent.com%3A80","udp%3A%2F%2Fopen.demonii.com%3A1337","udp%3A%2F%2Ftracker.coppersurfer.tk%3A6969","udp%3A%2F%2Fexodus.desync.com%3A6969"],"infoHash":"c1bebba424691f255b01b4e1148c8d4d9ca34731","infoHashBuffer":{"type":"Buffer","data":[193,190,187,164,36,105,31,37,91,1,180,225,20,140,141,77,156,163,71,49]},"announce":[],"urlList":[]}}